<?xml version="1.0" encoding="UTF-8" standalone="no"?>
<svg width="100%" height="100%" viewBox="0 0 1024 1024" version="1.1" xmlns="http://www.w3.org/2000/svg" style="fill-rule:evenodd;clip-rule:evenodd;stroke-linejoin:round;stroke-miterlimit:2;">
    <!-- Green circular background -->
    <circle cx="512" cy="512" r="512" style="fill:#2c4540;"/>
    <!-- White logo -->
    <g transform="matrix(3.1242,0,0,3.1242,-1096.40927,-1091.214705)">
        <path d="M511.702,399.611L512.499,399.417C512.64,399.45 513.346,398.707 513.477,400.508C513.971,407.29 514.891,419.933 526.308,484.534C526.568,486.009 526.054,492.102 530.761,487.8C552.432,467.995 554.024,467.55 556.587,466.834C566.409,464.088 557.173,470.699 550.879,478.798C538.84,494.287 530.857,499.189 537.534,500.27C574.825,506.31 575.524,508.564 580.115,505.017C581.794,503.719 643.992,460.119 606.548,454.203C579.187,449.88 530.773,466.588 529.606,466.09C528.256,465.514 526.278,460.568 529.46,459.413C535.031,457.389 640.061,416.943 655.277,439.64C669.022,460.143 591.501,506.339 591.587,508.479C591.652,510.103 592.576,509.549 611.561,512.167C617.942,513.048 625.583,512.526 619.415,514.361C617.976,514.789 617.879,514.088 544.557,525.808C543.376,525.997 531.904,526.565 534.931,530.171C549.902,548.002 559.816,562.539 569.446,573.535C569.64,573.757 572.473,576.991 570.518,577.061C570.071,577.078 536.756,546.485 534.617,544.377C528.812,538.658 528.716,535.647 521.265,539.018C502.794,547.374 502.189,547.224 501.04,545.957C499.78,544.567 500.634,532.93 495.648,537.66C482.398,550.231 483.432,551.664 471.659,556.993C470.877,557.347 470.202,557.904 469.443,558.304C463.496,561.44 473.888,550.153 476.189,547.264C490.304,529.543 492.669,527.819 489.577,527.248C486.225,526.629 486.21,526.961 447.541,520.261C442.069,519.313 418.056,540.805 413.451,553.482C403.374,581.218 475.45,566.736 518.339,548.101C518.778,547.91 523.706,545.769 524.156,546.665C525.329,548.997 514.993,603.896 513.798,626.612C513.653,629.37 511.9,627.747 511.733,626.445C511.068,621.278 503.545,562.735 501.665,562.104C500.723,561.787 406.01,602.864 380.396,586.652C375.107,583.305 361.172,570.918 425.864,522.988C426.285,522.675 432.096,518.37 429.49,517.52C425.906,516.351 413.026,515.139 411.586,515.004C411.239,514.971 406.057,514.484 407.768,512.922C409.117,511.689 409.606,513.569 430.431,510.019C452.321,506.287 491.513,500.468 491.749,499.668C492.536,496.997 490.097,497.847 459.054,458.753C447.064,443.654 467.049,463.092 472.909,468.021C497.409,488.63 497.603,492.125 498.727,489.675C498.984,489.116 510.488,414.335 511.119,407.43C511.199,406.556 511.225,403.648 511.702,399.611Z" style="fill:white;"/>
    </g>
</svg>
