<?xml version="1.0" encoding="UTF-8" standalone="no"?>
<!DOCTYPE svg PUBLIC "-//W3C//DTD SVG 1.1//EN" "http://www.w3.org/Graphics/SVG/1.1/DTD/svg11.dtd">
<svg width="100%" height="100%" viewBox="-96 -18 2156 796" preserveAspectRatio="none" version="1.1" xmlns="http://www.w3.org/2000/svg" xmlns:xlink="http://www.w3.org/1999/xlink" xml:space="preserve" xmlns:serif="http://www.serif.com/" style="fill-rule:evenodd;clip-rule:evenodd;stroke-linejoin:round;stroke-miterlimit:2;">
    <g transform="matrix(0.990811,0,0,1.169158,9.044417,13.582191)">
        <g transform="matrix(1,0,0,1.348884,0,625.995956)">
            <path d="M403.154,-333.223L380.918,-333.223C378.984,-340.957 375.493,-350.142 370.444,-360.776C365.396,-371.411 359.756,-381.455 353.525,-390.908C347.08,-400.791 340.044,-409.438 332.417,-416.851C324.79,-424.263 317.432,-428.506 310.342,-429.58C303.682,-430.439 295.303,-431.084 285.205,-431.514C275.107,-431.943 265.762,-432.158 257.168,-432.158L238.477,-432.158L238.477,-66.387C238.477,-59.297 239.98,-52.798 242.988,-46.89C245.996,-40.981 251.26,-36.416 258.779,-33.193C262.646,-31.689 270.757,-29.648 283.11,-27.07C295.464,-24.492 305.078,-23.096 311.953,-22.881L311.953,0L96.035,0L96.035,-22.881C102.051,-23.311 111.235,-24.17 123.589,-25.459C135.942,-26.748 144.482,-28.359 149.209,-30.293C156.299,-33.086 161.509,-37.114 164.839,-42.378C168.169,-47.642 169.834,-54.678 169.834,-63.486L169.834,-432.158L151.143,-432.158C144.482,-432.158 136.211,-431.997 126.328,-431.675C116.445,-431.353 106.992,-430.654 97.969,-429.58C90.879,-428.721 83.521,-424.478 75.894,-416.851C68.267,-409.224 61.23,-400.576 54.785,-390.908C48.34,-381.24 42.646,-370.981 37.705,-360.132C32.764,-349.282 29.326,-340.312 27.393,-333.223L4.834,-333.223L4.834,-457.295L403.154,-457.295L403.154,-333.223Z" style="fill:rgb(247,244,237);fill-rule:nonzero;"/>
        </g>
        <g transform="matrix(1,0,0,1.348884,396,625.995956)">
            <path d="M231.387,0L25.459,0L25.459,-22.881C31.26,-23.311 39.639,-23.955 50.596,-24.814C61.553,-25.674 69.287,-26.963 73.799,-28.682C80.889,-31.475 86.045,-35.288 89.268,-40.122C92.49,-44.956 94.102,-51.67 94.102,-60.264L94.102,-391.553C94.102,-399.072 92.92,-405.356 90.557,-410.405C88.193,-415.454 82.607,-419.697 73.799,-423.135C67.354,-425.713 59.243,-428.13 49.468,-430.386C39.692,-432.642 31.689,-433.984 25.459,-434.414L25.459,-457.295L231.387,-457.295L231.387,-434.414C224.727,-434.199 216.777,-433.394 207.539,-431.997C198.301,-430.601 190.244,-428.828 183.369,-426.68C175.205,-424.102 169.727,-419.912 166.934,-414.111C164.141,-408.311 162.744,-401.865 162.744,-394.775L162.744,-63.809C162.744,-56.719 164.302,-50.435 167.417,-44.956C170.532,-39.478 175.85,-35.127 183.369,-31.904C187.881,-30.186 195.239,-28.306 205.444,-26.265C215.649,-24.224 224.297,-23.096 231.387,-22.881L231.387,0Z" style="fill:rgb(247,244,237);fill-rule:nonzero;"/>
        </g>
        <g transform="matrix(1,0,0,1.348884,640,625.995956)">
            <path d="M403.154,-333.223L380.918,-333.223C378.984,-340.957 375.493,-350.142 370.444,-360.776C365.396,-371.411 359.756,-381.455 353.525,-390.908C347.08,-400.791 340.044,-409.438 332.417,-416.851C324.79,-424.263 317.432,-428.506 310.342,-429.58C303.682,-430.439 295.303,-431.084 285.205,-431.514C275.107,-431.943 265.762,-432.158 257.168,-432.158L238.477,-432.158L238.477,-66.387C238.477,-59.297 239.98,-52.798 242.988,-46.89C245.996,-40.981 251.26,-36.416 258.779,-33.193C262.646,-31.689 270.757,-29.648 283.11,-27.07C295.464,-24.492 305.078,-23.096 311.953,-22.881L311.953,0L96.035,0L96.035,-22.881C102.051,-23.311 111.235,-24.17 123.589,-25.459C135.942,-26.748 144.482,-28.359 149.209,-30.293C156.299,-33.086 161.509,-37.114 164.839,-42.378C168.169,-47.642 169.834,-54.678 169.834,-63.486L169.834,-432.158L151.143,-432.158C144.482,-432.158 136.211,-431.997 126.328,-431.675C116.445,-431.353 106.992,-430.654 97.969,-429.58C90.879,-428.721 83.521,-424.478 75.894,-416.851C68.267,-409.224 61.23,-400.576 54.785,-390.908C48.34,-381.24 42.646,-370.981 37.705,-360.132C32.764,-349.282 29.326,-340.312 27.393,-333.223L4.834,-333.223L4.834,-457.295L403.154,-457.295L403.154,-333.223Z" style="fill:rgb(247,244,237);fill-rule:nonzero;"/>
        </g>
        <g transform="matrix(1,0,0,1.348884,993,625.995956)">
            <path d="M204.316,-364.16C204.316,-364.16 114.136,-130.088 110.376,-118.916C106.616,-107.744 103.232,-97.432 100.225,-87.979C97.432,-78.74 95.498,-71.221 94.424,-65.42C93.35,-59.619 92.812,-54.893 92.812,-51.24C92.812,-42.646 99.58,-35.986 113.115,-31.26C126.65,-26.533 141.904,-23.74 158.877,-22.881L158.877,0L-13.213,0L-13.213,-22.881C-7.627,-23.311 -0.645,-24.546 7.734,-26.587C16.113,-28.628 22.988,-31.367 28.359,-34.805C36.953,-40.605 43.613,-46.675 48.34,-53.013C53.066,-59.351 57.686,-68.105 62.197,-79.277C85.186,-136.641 110.537,-201.094 138.252,-272.637C165.967,-344.18 190.674,-407.881 212.373,-463.74L238.154,-463.74L390.586,-69.287C393.809,-60.908 397.461,-54.141 401.543,-48.984C405.625,-43.828 411.318,-38.779 418.623,-33.838C423.564,-30.83 430.01,-28.306 437.959,-26.265C445.908,-24.224 452.568,-23.096 457.939,-22.881L457.939,0L267.48,0L267.48,-22.881C284.238,-23.955 298.149,-26.104 309.214,-29.326C320.278,-32.549 325.811,-36.523 325.811,-41.25C325.811,-43.184 325.596,-45.547 325.166,-48.34C324.736,-51.133 324.092,-53.604 323.232,-55.752L204.316,-364.16Z" style="fill:rgb(247,244,237);fill-rule:nonzero;"/>
        </g>
        <g transform="matrix(1,0,0,1.348884,1463,625.995956)">
            <path d="M500.801,-434.414C494.785,-434.199 485.547,-432.48 473.086,-429.258C460.625,-426.035 451.709,-422.705 446.338,-419.268C438.604,-413.896 433.394,-403.584 430.708,-388.33C428.022,-373.076 426.68,-353.74 426.68,-330.322L426.68,4.512L398.643,4.512L121.494,-369.639L121.494,-133.74C121.494,-107.314 123.159,-87.012 126.489,-72.832C129.819,-58.652 134.922,-48.555 141.797,-42.539C146.738,-37.812 156.943,-33.408 172.412,-29.326C187.881,-25.244 198.086,-23.096 203.027,-22.881L203.027,0L15.469,0L15.469,-22.881C21.27,-23.311 31.045,-25.405 44.795,-29.165C58.545,-32.925 67.139,-36.309 70.576,-39.316C78.096,-45.332 83.252,-54.517 86.045,-66.87C88.838,-79.224 90.234,-100.332 90.234,-130.195L90.234,-355.459C90.234,-365.342 88.516,-375.225 85.078,-385.107C81.641,-394.99 77.021,-402.617 71.221,-407.988C63.486,-415.078 53.013,-421.147 39.8,-426.196C26.587,-431.245 15.898,-433.984 7.734,-434.414L7.734,-457.295L138.252,-457.295L395.42,-108.604L395.42,-326.133C395.42,-352.773 393.701,-373.237 390.264,-387.524C386.826,-401.812 381.885,-411.318 375.439,-416.045C369.424,-420.127 359.595,-424.102 345.952,-427.969C332.31,-431.836 321.943,-433.984 314.854,-434.414L314.854,-457.295L500.801,-457.295L500.801,-434.414Z" style="fill:rgb(247,244,237);fill-rule:nonzero;"/>
        </g>
    </g>
</svg>
